<?xml version="1.0" encoding="UTF-8"?>
<svg version="1.1" xmlns="http://www.w3.org/2000/svg" width="1024" height="1024">
<path d="M0 0 C1.19367188 0.07025391 2.38734375 0.14050781 3.6171875 0.21289062 C11.10109313 0.72464566 17.85706575 1.92412541 25 4.1875 C25.90169922 4.45667236 26.80339844 4.72584473 27.73242188 5.00317383 C67.22006072 16.92913353 101.27651491 38.80768738 127 71.1875 C128.17369141 72.58355469 128.17369141 72.58355469 129.37109375 74.0078125 C134.89877716 80.78254129 139.29443268 87.89374767 143.5 95.5625 C144.01667236 96.50198486 144.53334473 97.44146973 145.06567383 98.40942383 C147.15052509 102.30580003 149.09175239 106.00166654 150.21875 110.2890625 C150.60546875 111.72378906 150.60546875 111.72378906 151 113.1875 C151.66 113.5175 152.32 113.8475 153 114.1875 C153 114.5175 153 114.8475 153 115.1875 C153.63800537 115.25743164 154.27601074 115.32736328 154.93334961 115.39941406 C181.69463857 118.38864307 205.17905336 124.37818213 229 137.1875 C229.59087402 137.49768066 230.18174805 137.80786133 230.79052734 138.12744141 C273.19274816 160.46865054 303.6230849 201.33085147 317.6875 246.6484375 C329.39283094 286.23899724 327.46358243 330.88627641 312 369.1875 C311.74524902 369.84089355 311.49049805 370.49428711 311.22802734 371.16748047 C304.1619426 389.17602874 293.65960277 404.65269112 281 419.1875 C280.50967285 419.75227051 280.0193457 420.31704102 279.51416016 420.89892578 C273.42593124 427.85482592 266.91937157 434.05505391 260 440.1875 C260.25692627 440.92685791 260.51385254 441.66621582 260.77856445 442.42797852 C277.26729912 490.13508726 279.33389672 539.92501975 257.11474609 586.50512695 C250.65110154 599.53286244 243.11624125 611.84349562 234 623.1875 C233.55817383 623.73760742 233.11634766 624.28771484 232.66113281 624.85449219 C203.0181853 661.4285673 158.49046205 688.931806 111.25 694.4375 C91.07725884 696.43546604 70.93756181 695.73755654 51 692.1875 C49.76894531 691.98253906 48.53789063 691.77757812 47.26953125 691.56640625 C30.24182013 688.35250063 14.23494545 681.85843938 -1.13500977 674.01611328 C-3.06862628 673.15700942 -4.93660965 672.63980477 -7 672.1875 C-6.67 671.5275 -6.34 670.8675 -6 670.1875 C-7.03447266 669.83171875 -7.03447266 669.83171875 -8.08984375 669.46875 C-11.56411374 667.93913851 -14.50899894 665.90892415 -17.5625 663.6875 C-18.16658691 663.25260254 -18.77067383 662.81770508 -19.39306641 662.36962891 C-25.49820774 657.92038951 -31.27614205 653.11463047 -37 648.1875 C-37.66 648.5175 -38.32 648.8475 -39 649.1875 C-39 648.1975 -39 647.2075 -39 646.1875 C-43.62774753 648.71375832 -48.19982054 651.29398133 -52.6875 654.0625 C-81.52624702 671.26918011 -112.95980797 677.41389145 -146.25 677.3125 C-147.56613281 677.31636719 -148.88226563 677.32023438 -150.23828125 677.32421875 C-151.48480469 677.32292969 -152.73132813 677.32164062 -154.015625 677.3203125 C-155.14258789 677.31918457 -156.26955078 677.31805664 -157.43066406 677.31689453 C-160 677.1875 -160 677.1875 -161 676.1875 C-162.92308212 675.89049065 -164.84730891 675.59967133 -166.77563477 675.33886719 C-203.82271344 670.26522681 -236.73621321 654.23072681 -265 630.1875 C-265.96292969 629.36894531 -266.92585938 628.55039062 -267.91796875 627.70703125 C-276.86186094 619.87245902 -284.26524766 611.10530133 -291.15234375 601.4609375 C-291.76207031 600.71070313 -292.37179687 599.96046875 -293 599.1875 C-293.66 599.1875 -294.32 599.1875 -295 599.1875 C-295.103125 598.630625 -295.20625 598.07375 -295.3125 597.5 C-296.42023922 593.77396808 -298.26276067 590.92473933 -301 588.1875 C-301.71648764 586.85243644 -302.38530131 585.491426 -303.0234375 584.1171875 C-303.405 583.3025 -303.7865625 582.4878125 -304.1796875 581.6484375 C-304.57414062 580.79507813 -304.96859375 579.94171875 -305.375 579.0625 C-306.15279532 577.3928327 -306.93143377 575.72355789 -307.7109375 574.0546875 C-308.0934668 573.23202393 -308.47599609 572.40936035 -308.87011719 571.56176758 C-309.90313725 569.39104153 -310.9915852 567.26093924 -312.1015625 565.12890625 C-314.19540719 560.96826107 -315.63733321 556.69652366 -317 552.25 C-317.38019287 551.02470581 -317.38019287 551.02470581 -317.76806641 549.7746582 C-319.47086502 544.18152012 -321.00664618 538.55907637 -322.375 532.875 C-322.62636719 531.84548218 -322.62636719 531.84548218 -322.8828125 530.79516602 C-323.78848796 526.85577055 -324.16276475 523.22531774 -324 519.1875 C-324.66 518.8575 -325.32 518.5275 -326 518.1875 C-327.46962249 487.43539947 -328.11999189 455.0688717 -316.1015625 426.015625 C-315.78881413 423.99493837 -315.78881413 423.99493837 -317.59765625 422.12890625 C-318.81775391 420.95134766 -318.81775391 420.95134766 -320.0625 419.75 C-332.06457739 407.41900905 -340.98007622 391.80254996 -348 376.1875 C-348.46664062 375.15625 -348.93328125 374.125 -349.4140625 373.0625 C-358.26350208 352.64906883 -362.28063738 332.24702647 -363.76635742 310.13256836 C-363.89842773 308.10951997 -363.89842773 308.10951997 -365 306.1875 C-364.8892077 268.39091262 -354.5464454 228.51037295 -333 197.1875 C-332.5663916 196.55618164 -332.1327832 195.92486328 -331.68603516 195.27441406 C-303.6855408 155.14399106 -262.20849245 127.40608389 -214 118.1875 C-206.34544019 116.87733325 -198.7787923 116.07793955 -191 116.1875 C-190.87794189 115.45499023 -190.75588379 114.72248047 -190.63012695 113.96777344 C-184.18812482 85.54409257 -155.12837496 56.39161906 -133 39.1875 C-132.04222656 38.43597656 -131.08445312 37.68445313 -130.09765625 36.91015625 C-92.04515831 7.65823602 -47.47832449 -3.25580303 0 0 Z M-66 58.1875 C-67.04285156 58.56777344 -68.08570313 58.94804687 -69.16015625 59.33984375 C-77.23163948 62.49825023 -84.60328845 66.71382627 -92 71.1875 C-92.80179687 71.66960937 -93.60359375 72.15171875 -94.4296875 72.6484375 C-126.38006463 92.89537978 -147.03991149 126.13966501 -155.53173828 162.46191406 C-158.13681992 174.43936286 -159.16269657 186.30314182 -159.09765625 198.54296875 C-159.0962413 199.57061844 -159.09482635 200.59826813 -159.09336853 201.65705872 C-159.08783066 204.89640379 -159.0752903 208.13567629 -159.0625 211.375 C-159.05747695 213.5891917 -159.05291546 215.8033845 -159.04882812 218.01757812 C-159.03788169 223.40757628 -159.0212069 228.79753295 -159 234.1875 C-155.74872438 232.95964909 -152.84039612 231.59906797 -149.90234375 229.74609375 C-149.11504883 229.25343018 -148.32775391 228.7607666 -147.51660156 228.25317383 C-146.66549805 227.71587646 -145.81439453 227.1785791 -144.9375 226.625 C-143.05668532 225.44940701 -141.17513501 224.27499036 -139.29296875 223.1015625 C-137.77775635 222.15651855 -137.77775635 222.15651855 -136.23193359 221.19238281 C-130.42707175 217.59142153 -124.58978787 214.0439522 -118.75 210.5 C-118.14943787 210.13535645 -117.54887573 209.77071289 -116.93011475 209.39501953 C-109.24315674 204.73000289 -101.54141473 200.09215416 -93.76269531 195.58129883 C-88.61820666 192.58986865 -83.55906499 189.46466973 -78.49487305 186.33959961 C-75.04873257 184.21468547 -71.59268673 182.10636932 -68.1328125 180.00390625 C-67.56199951 179.65703262 -66.99118652 179.310159 -66.40307617 178.95277405 C-63.40835843 177.13404658 -60.41206944 175.31792845 -57.41479492 173.50341797 C-56.18928196 172.7614071 -54.9637773 172.01938254 -53.73828125 171.27734375 C-53.14639511 170.91906494 -52.55450897 170.56078613 -51.94468689 170.19165039 C-48.67422168 168.20979777 -45.41487722 166.21159455 -42.16796875 164.19140625 C-32.80408823 158.38700155 -24.33689359 153.48864799 -13 155.1875 C-4.14245162 157.67129324 3.68536348 162.76664582 11.41381836 167.61645508 C12.19378174 168.09107178 12.97374512 168.56568848 13.77734375 169.0546875 C14.47077881 169.48894043 15.16421387 169.92319336 15.87866211 170.37060547 C18.64691096 171.43661544 20.19065632 171.03024649 23 170.1875 C25.14241909 169.11489018 27.24356899 167.95829461 29.3125 166.75 C29.91715088 166.39800537 30.52180176 166.04601074 31.14477539 165.68334961 C36.4869451 162.54824784 41.73745816 159.26716786 46.97705078 155.96435547 C51.94156984 152.83581663 56.95249368 149.79714893 61.99707031 146.79980469 C65.75522309 144.55820238 69.4803288 142.27040056 73.1875 139.9453125 C91.33379137 128.57031509 91.33379137 128.57031509 101 124.1875 C98.81021764 112.01572272 86.13710604 99.91181987 78 91.1875 C77.37351562 90.506875 76.74703125 89.82625 76.1015625 89.125 C51.82057855 63.71705055 17.23738697 50.8943279 -17.4597168 49.90209961 C-34.13849856 49.69921251 -50.36043937 52.44899747 -66 58.1875 Z M70 200.1875 C72.87817045 203.27650531 75.77718469 205.45599222 79.390625 207.62890625 C80.47625732 208.2852002 81.56188965 208.94149414 82.68041992 209.61767578 C83.87017631 210.32862399 85.06003953 211.03939344 86.25 211.75 C87.49544172 212.49943331 88.74063511 213.24927943 89.9855957 213.99951172 C102.03403652 221.24899972 114.1349982 228.41140303 126.23046875 235.58203125 C126.88246246 235.9685788 127.53445618 236.35512634 128.20620728 236.75338745 C131.37604579 238.63253401 134.54630204 240.51096915 137.71728516 242.38818359 C141.14812943 244.41998186 144.57422372 246.4596687 148 248.5 C149.00184326 249.09184082 150.00368652 249.68368164 151.03588867 250.29345703 C171.35086432 262.42060132 171.35086432 262.42060132 175.37870789 273.44458008 C176.64833964 279.04983108 176.19943074 284.87312317 176.04390717 290.58681679 C175.96241934 293.87394919 175.93753622 297.16079179 175.90907669 300.44874096 C175.85587643 306.55194125 175.7813313 312.6526257 175.60595703 318.75366211 C175.48558713 323.01733948 175.43979127 327.27640429 175.44147491 331.54170799 C175.42855304 333.15468971 175.38884452 334.76771024 175.32054901 336.37929726 C174.82523929 345.19375477 174.82523929 345.19375477 178.44261169 352.91210556 C181.99843527 356.14804153 185.94036179 358.63523249 190.08997345 361.03549767 C193.09360799 362.84709238 195.7945215 364.97217963 198.5625 367.125 C200.12484375 368.33542969 200.12484375 368.33542969 201.71875 369.5703125 C205.39303755 372.47613625 208.99029519 375.46990071 212.5625 378.5 C213.14652588 378.99169678 213.73055176 379.48339355 214.33227539 379.98999023 C216.94155669 382.23114451 219.11948333 384.33731529 221.27734375 387.04296875 C221.84582031 387.75066406 222.41429687 388.45835937 223 389.1875 C223.66 389.1875 224.32 389.1875 225 389.1875 C225.268125 389.785625 225.53625 390.38375 225.8125 391 C226.98493467 393.15974808 228.19369282 394.54540256 230 396.1875 C246.52149308 388.90621558 258.4562071 364.63498147 264.96582031 348.84472656 C268.92124442 338.54841309 271.35546527 328.07333811 273 317.1875 C273.13148438 316.38441406 273.26296875 315.58132813 273.3984375 314.75390625 C274.08653601 309.83493175 274.09659167 304.89726096 274.125 299.9375 C274.12975342 299.25107422 274.13450684 298.56464844 274.1394043 297.85742188 C274.12719403 294.15635358 273.77611827 290.79556128 273 287.1875 C272.87709721 285.25109822 272.77458857 283.31334273 272.6875 281.375 C270.10967627 247.56001811 250.85785511 217.23147326 226 195.1875 C175.13576066 152.72088437 120.44403256 166.06115942 70 200.1875 Z M-276.43164062 206.54882812 C-284.60676626 215.09046002 -291.18955781 224.92924143 -297 235.1875 C-297.52078125 236.09242188 -298.0415625 236.99734375 -298.578125 237.9296875 C-314.88707776 268.230005 -317.8948965 304.28921376 -308.609375 337.18066406 C-299.7502769 366.35605924 -280.1117644 392.28151018 -254 408.1875 C-253.12730469 408.52007813 -252.25460937 408.85265625 -251.35546875 409.1953125 C-249 410.1875 -249 410.1875 -247.23535156 412.01074219 C-244.64980232 414.52851818 -241.98610203 416.17344111 -238.87890625 418.0078125 C-238.2971312 418.35254608 -237.71535614 418.69727966 -237.11595154 419.05245972 C-235.89142133 419.77630366 -234.66515384 420.49721585 -233.43725586 421.21533203 C-231.56770646 422.30945301 -229.70443304 423.41369081 -227.84179688 424.51953125 C-222.98288766 427.38476949 -218.27069919 430.14176388 -213 432.1875 C-213.00222061 431.29280502 -213.00444122 430.39811005 -213.00672913 429.4763031 C-213.07067414 402.37994869 -213.07606037 375.28384148 -213 348.1875 C-212.99745964 347.27893753 -212.99491928 346.37037506 -212.99230194 345.4342804 C-212.96015602 334.56760975 -212.8988496 323.70167399 -212.79147339 312.83547974 C-212.7620225 309.79809354 -212.74161214 306.76086108 -212.72927856 303.72335815 C-212.71428984 300.15430123 -212.68023232 296.58591689 -212.63175392 293.01716232 C-212.61038801 291.12487425 -212.60755115 289.23240406 -212.6056366 287.33999634 C-212.50361258 281.37600837 -211.9064721 276.36393128 -209.98413086 270.70068359 C-207.63930038 263.74384143 -207.50241518 257.4196743 -207.64453125 250.12890625 C-207.65681443 248.13216936 -207.66909237 246.13543242 -207.68109417 244.13869381 C-207.70283542 241.37104635 -207.74329544 238.60379393 -207.78363037 235.83636475 C-207.85922862 230.37299277 -207.89979112 224.90916177 -207.94152641 219.4454422 C-207.95694456 217.45261157 -207.97420225 215.45979544 -207.99147034 213.46697998 C-208.08417516 198.69473649 -207.65188362 183.87872024 -206 169.1875 C-231.32316372 169.1875 -259.58460144 189.78386952 -276.43164062 206.54882812 Z M-26 214.125 C-26.72421143 214.56030029 -27.44842285 214.99560059 -28.19458008 215.4440918 C-30.8023457 217.01557792 -33.4011878 218.60125275 -36 220.1875 C-38.19114165 221.5186648 -40.38256445 222.8493669 -42.57421875 224.1796875 C-46.16748129 226.36130107 -49.76013412 228.54390053 -53.35083008 230.72973633 C-61.47287181 235.67142827 -69.63282081 240.5445279 -77.82714844 245.36547852 C-88.00862789 251.35893119 -98.1312119 257.45009357 -108.25634766 263.53808594 C-111.27402712 265.35223814 -114.29295195 267.16430201 -117.3125 268.9753418 C-118.50407719 269.6900634 -119.69548838 270.40506183 -120.88671875 271.12036133 C-123.81369176 272.87779242 -126.74297805 274.6312295 -129.67578125 276.37890625 C-133.45869641 278.634994 -137.23093959 280.90835989 -141 283.1875 C-141.71494629 283.61772461 -142.42989258 284.04794922 -143.16650391 284.49121094 C-145.36633642 285.8189205 -147.55887355 287.15798165 -149.75 288.5 C-150.76984985 289.11282837 -150.76984985 289.11282837 -151.81030273 289.73803711 C-155.27888475 291.87921862 -157.92796959 293.6593463 -160 297.1875 C-160.44784943 300.11034176 -160.44784943 300.11034176 -160.3742218 303.391922 C-160.38123611 304.66625595 -160.38825043 305.9405899 -160.39547729 307.25354004 C-160.38804965 308.66357579 -160.38031851 310.07360998 -160.37231445 311.48364258 C-160.3747428 312.97039545 -160.37846253 314.4571467 -160.38337708 315.94389343 C-160.39278639 319.98127502 -160.38335905 324.01841417 -160.37004495 328.05577683 C-160.35872646 332.28325323 -160.36283843 336.51071776 -160.36479187 340.73820496 C-160.36567501 347.84089108 -160.35459271 354.9434818 -160.33618164 362.04614258 C-160.31503813 370.24971989 -160.31149884 378.45315719 -160.3177436 386.65675622 C-160.32344655 394.55367234 -160.31777905 402.45053931 -160.30657005 410.34744835 C-160.3019339 413.70493164 -160.30104599 417.06238476 -160.3031559 420.41987038 C-160.30504513 424.37860501 -160.29688624 428.337198 -160.2810955 432.29590034 C-160.2768668 433.74587162 -160.27599255 435.19585731 -160.27878571 436.64583206 C-160.28202896 438.63127024 -160.27166174 440.61671653 -160.26069641 442.60212708 C-160.25864354 443.71137952 -160.25659067 444.82063196 -160.25447559 445.96349812 C-159.9067348 450.36909541 -159.43724908 454.76338095 -156.20947266 457.96166992 C-155.13511963 458.58972534 -155.13511963 458.58972534 -154.0390625 459.23046875 C-153.23243164 459.71692871 -152.42580078 460.20338867 -151.59472656 460.70458984 C-150.7384668 461.1939502 -149.88220703 461.68331055 -149 462.1875 C-148.15663086 462.69619629 -147.31326172 463.20489258 -146.44433594 463.72900391 C-143.76738203 465.34209163 -141.07372867 466.92364423 -138.375 468.5 C-136.41644449 469.65066358 -134.4581115 470.801706 -132.5 471.953125 C-131.08267578 472.78553711 -131.08267578 472.78553711 -129.63671875 473.63476562 C-126.20538666 475.65543897 -122.78717343 477.69718247 -119.375 479.75 C-118.48905151 480.28258423 -118.48905151 480.28258423 -117.58520508 480.82592773 C-115.72312517 481.94587979 -113.8615212 483.06661956 -112 484.1875 C-99.43976082 491.74863901 -86.84711706 499.25381661 -74.23666382 506.73080444 C-64.93104897 512.2487239 -55.64445459 517.79654995 -46.375 523.375 C-42.58574104 525.64987536 -38.79433424 527.92110005 -35 530.1875 C-34.22881836 530.64817871 -33.45763672 531.10885742 -32.66308594 531.58349609 C-30.69717205 532.75218749 -28.72552661 533.91015415 -26.75 535.0625 C-25.73421875 535.65804688 -24.7184375 536.25359375 -23.671875 536.8671875 C-20.90220195 538.23582711 -19.07663969 538.94109227 -16 539.1875 C-12.96513345 537.95609718 -12.96513345 537.95609718 -9.87109375 535.98828125 C-9.2888504 535.64216293 -8.70660706 535.29604462 -8.10671997 534.93943787 C-6.20844271 533.80654829 -4.32326134 532.65358068 -2.4375 531.5 C-1.12116166 530.70927812 0.19598416 529.91989898 1.51391602 529.13183594 C4.76700301 527.18267069 8.01040808 525.21804025 11.25109863 523.24835205 C13.69010703 521.76889351 16.13745658 520.30356003 18.5859375 518.83984375 C21.79112317 516.92349074 24.99283202 515.00158584 28.19140625 513.07421875 C37.09242938 507.719654 46.05231286 502.46354465 55 497.1875 C66.76882935 490.2454716 78.5325129 483.29681099 90.23779297 476.24804688 C92.69461941 474.76945806 95.15353412 473.29436304 97.61279297 471.81982422 C98.85848497 471.07240902 100.10361452 470.32405548 101.34814453 469.57470703 C104.62262313 467.60449187 107.9068124 465.65339835 111.20703125 463.7265625 C111.89410156 463.32244141 112.58117187 462.91832031 113.2890625 462.50195312 C114.60747138 461.7269425 115.92895836 460.95713718 117.25390625 460.19335938 C120.31039718 458.38936527 121.99610441 457.19334339 124 454.1875 C124.3118008 451.61661419 124.5145795 449.14263973 124.625 446.5625 C124.68083252 445.44319092 124.68083252 445.44319092 124.73779297 444.30126953 C124.98360998 438.88989684 125.09972778 433.47918021 125.125 428.0625 C125.12967285 427.37720215 125.1343457 426.6919043 125.13916016 425.98583984 C125.1294939 422.949892 124.98044901 420.06745416 124.49206543 417.06871033 C123.90424294 412.4322076 123.91917185 407.94914203 123.99414062 403.28344727 C124.01096138 401.82816872 124.01096138 401.82816872 124.02812195 400.3434906 C124.05304911 398.24444739 124.08043872 396.14543228 124.11003113 394.04644966 C124.15686004 390.7104482 124.19680843 387.37442583 124.23498535 384.03831482 C124.33123403 375.74592229 124.43863893 367.45368231 124.54681396 359.16143799 C124.63785356 352.15952404 124.72403027 345.15758315 124.80375671 338.15553093 C124.84281655 334.89434159 124.88885964 331.63330065 124.93518066 328.37220764 C125.04734157 319.55311702 125.12360751 310.73787874 124.70507812 301.92553711 C124.6471106 300.69363144 124.58914307 299.46172577 124.52941895 298.19248962 C123.95854186 294.95218298 123.3705865 293.82215071 120.875 291.75 C119.27020682 290.85844823 117.64059439 290.01131778 116 289.1875 C114.73940469 288.41841022 113.48604226 287.63739805 112.23828125 286.84765625 C105.56682128 282.13358781 105.56682128 282.13358781 98 280.1875 C96.64576926 278.87539686 95.3159842 277.53795961 94 276.1875 C92.12063103 274.91715085 90.20190314 273.70405584 88.2578125 272.53515625 C87.70177338 272.19880157 87.14573425 271.8624469 86.57284546 271.51589966 C84.76027055 270.42154975 82.94278579 269.33566834 81.125 268.25 C79.85717337 267.48714788 78.58959781 266.72387834 77.32226562 265.96020508 C67.95734694 260.32531681 58.55155774 254.75919314 49.1328125 249.21484375 C36.45478852 241.74752095 23.87043942 234.12256512 11.28765869 226.49621582 C10.07592078 225.76188978 8.86397383 225.02790856 7.65179443 224.29431152 C5.93245862 223.25346636 4.2142668 222.21073223 2.49609375 221.16796875 C0.86196533 220.17676025 0.86196533 220.17676025 -0.80517578 219.16552734 C-4.82279984 216.67807586 -8.75877392 214.07401145 -12.67553711 211.4309082 C-17.93350873 208.61829929 -21.49314358 211.35492951 -26 214.125 Z M177 414.1875 C177.00444122 414.8248407 177.00888245 415.4621814 177.01345825 416.11883545 C177.0579977 422.80332172 177.08799246 429.48776525 177.10986328 436.17236328 C177.11986813 438.6609875 177.13347622 441.14960012 177.15087891 443.63818359 C177.17537112 447.23277667 177.18653864 450.82721317 177.1953125 454.421875 C177.20563507 455.51924988 177.21595764 456.61662476 177.22659302 457.74725342 C177.22823251 469.25362672 176.78754565 480.23632417 168.39990234 488.82617188 C162.7036086 493.98426936 156.44251911 497.6464373 149.75 501.375 C147.99485906 502.36791113 146.24183811 503.36449529 144.48892212 504.36132812 C142.7426401 505.35414066 140.99486147 506.34431929 139.24707031 507.33447266 C134.83676567 509.85133072 130.47323046 512.44019095 126.125 515.0625 C125.34116943 515.53478027 124.55733887 516.00706055 123.74975586 516.49365234 C115.40070539 521.53587623 107.06968407 526.60804989 98.73535156 531.67456055 C88.66645249 537.79353783 78.56909038 543.86402973 68.4609375 549.91796875 C67.55045654 550.47250732 66.63997559 551.0270459 65.7019043 551.59838867 C63.90484344 552.65532092 62.07389567 553.65667967 60.21411133 554.59887695 C54.42740795 557.6342385 51.82595453 560.08344889 49.73535156 566.31762695 C49.47206055 567.20281006 49.20876953 568.08799316 48.9375 569 C48.29356896 570.88830644 47.64107609 572.7737128 46.98046875 574.65625 C46.49392822 576.05810547 46.49392822 576.05810547 45.99755859 577.48828125 C39.56423617 594.89572441 27.67162536 609.87589356 15 623.1875 C19.41720966 627.20397312 24.25568777 629.32934825 29.6875 631.625 C30.61288574 632.01824463 31.53827148 632.41148926 32.49169922 632.81665039 C41.14372149 636.40156678 49.88695926 639.06769136 59 641.1875 C59.97839844 641.42082031 60.95679688 641.65414062 61.96484375 641.89453125 C95.06965426 648.81418337 131.84577776 640.40358154 160 622.1875 C167.91371891 616.88121778 175.08571282 610.72464425 182 604.1875 C182.74894531 603.49140625 183.49789062 602.7953125 184.26953125 602.078125 C208.25786636 579.05604507 221.61340241 546.81156426 222.46777344 513.75415039 C222.62073089 496.52905534 220.30284059 480.28359887 214 464.1875 C213.72800781 463.47464844 213.45601562 462.76179688 213.17578125 462.02734375 C206.41191 445.65326628 193.64433287 422.17119582 177 414.1875 Z M-272 455.1875 C-282.41158693 485.29217752 -275.5608457 522.67987096 -262.0078125 550.62792969 C-255.99953815 562.50752507 -248.2186483 572.59288725 -239 582.1875 C-238.55962402 582.65897461 -238.11924805 583.13044922 -237.66552734 583.61621094 C-214.10860414 608.80368292 -180.847943 623.22334686 -146.37890625 624.390625 C-121.70242275 624.79306971 -98.6062797 619.1749974 -77 607.1875 C-75.94425781 606.62160156 -74.88851562 606.05570313 -73.80078125 605.47265625 C-64.90207124 600.52892847 -56.14282444 594.49155906 -49 587.1875 C-62.11883113 579.27081348 -75.27056002 571.41771978 -88.5 563.6875 C-102.76748961 555.34850308 -116.94368456 546.8621545 -131.09130859 538.32128906 C-143.97048562 530.54724379 -156.9068423 522.89313245 -169.95263672 515.40161133 C-176.86105667 511.43208308 -183.72097425 507.39557583 -190.5390625 503.2734375 C-194.32191898 500.98728581 -198.12731059 498.74023576 -201.9375 496.5 C-202.63496338 496.08991699 -203.33242676 495.67983398 -204.05102539 495.25732422 C-208.20664419 492.81784518 -212.36886869 490.38996194 -216.53515625 487.96875 C-228.16750508 481.20595836 -239.75371751 474.37505743 -251.27539062 467.42504883 C-258.1473466 463.28250632 -265.05906504 459.2133955 -272 455.1875 Z " fill="#010101" transform="translate(528,142.8125)"/>
<path d="M0 0 C0.495 0.99 0.495 0.99 1 2 C1.72155273 2.1347876 2.44310547 2.2695752 3.18652344 2.40844727 C6.66523253 3.1398697 8.99488404 4.59386822 12.015625 6.46484375 C12.58414688 6.81378189 13.15266876 7.16272003 13.73841858 7.52223206 C15.57976339 8.65406987 17.41473985 9.79582816 19.25 10.9375 C21.15722614 12.11236329 23.06609926 13.28451807 24.97505188 14.45657349 C26.23622863 15.23116919 27.49688224 16.00661733 28.75700378 16.78292847 C33.57434759 19.74912903 38.42565643 22.65012327 43.3125 25.5 C44.6211545 26.26552116 45.92975003 27.03114314 47.23828125 27.796875 C47.85654785 28.15845703 48.47481445 28.52003906 49.11181641 28.89257812 C77.10318226 45.30954677 77.10318226 45.30954677 79 51 C79.12708871 53.75142193 79.1989253 56.47903826 79.22460938 59.23168945 C79.23599945 60.07105042 79.24738953 60.91041138 79.25912476 61.77520752 C79.36958778 70.53872442 79.417166 79.30307258 79.45996094 88.06713867 C79.48225874 92.22576015 79.52406361 96.38348741 79.58300781 100.54174805 C79.65405492 105.56386005 79.69078594 110.58512878 79.70307922 115.60771751 C79.71348423 117.52033948 79.73591906 119.43293571 79.77067566 121.34527016 C79.81686232 124.02455688 79.81888587 126.70053066 79.81054688 129.38012695 C79.83414276 130.16735641 79.85773865 130.95458588 79.88204956 131.76567078 C79.8317287 135.11171014 79.68969124 137.17740213 77.49424458 139.79592133 C73.92411909 142.91164237 69.99795576 145.39206824 65.88671875 147.7421875 C65.32334808 148.06769089 64.75997742 148.39319427 64.17953491 148.7285614 C62.97577274 149.42347926 61.7702238 150.11531008 60.5630188 150.80422974 C57.32704964 152.65170764 54.10518009 154.52346068 50.8828125 156.39453125 C50.22533524 156.77574631 49.56785797 157.15696136 48.89045715 157.54972839 C42.20787021 161.43672191 35.63176417 165.48785643 29.0625 169.5625 C26.9299712 170.87676252 24.79717088 172.19058461 22.6640625 173.50390625 C19.99239281 175.14953828 17.3226636 176.79693398 14.66699219 178.46826172 C12.76734324 179.66323094 10.85554102 180.83488548 8.9375 182 C7.97714844 182.598125 7.01679687 183.19625 6.02734375 183.8125 C0.63330562 185.92835496 -4.03798799 185.79248126 -9.39453125 183.62890625 C-10.52246094 182.94699219 -11.65039062 182.26507812 -12.8125 181.5625 C-13.46573242 181.17489502 -14.11896484 180.78729004 -14.79199219 180.38793945 C-17.20750843 178.94571508 -19.60266243 177.47224214 -22 176 C-24.18540317 174.67837243 -26.37166423 173.35816284 -28.55859375 172.0390625 C-33.39368588 169.11891808 -38.21890892 166.183007 -43.0390625 163.23828125 C-48.20008714 160.08623137 -53.38314956 156.97344926 -58.58349609 153.88671875 C-62.40336803 151.61461049 -66.20476185 149.31295763 -70 147 C-71.11375 146.32582031 -72.2275 145.65164063 -73.375 144.95703125 C-74.2825 144.37308594 -75.19 143.78914062 -76.125 143.1875 C-76.84945313 142.72730469 -77.57390625 142.26710938 -78.3203125 141.79296875 C-82.48618812 137.34613872 -82.29777373 130.64716782 -82.29052734 124.88085938 C-82.29724457 124.10104202 -82.30396179 123.32122467 -82.31088257 122.51777649 C-82.3297617 119.95970152 -82.33378108 117.40189014 -82.3359375 114.84375 C-82.34237056 113.05448298 -82.34909929 111.265217 -82.35610962 109.47595215 C-82.36805577 105.73378052 -82.371793 101.99170105 -82.37060547 98.24951172 C-82.370402 93.46459706 -82.39774497 88.68027444 -82.43214989 83.89550018 C-82.4544275 80.20307724 -82.45844281 76.51079686 -82.45738602 72.8183136 C-82.4597391 71.05452935 -82.4685461 69.29074099 -82.48405075 67.52702332 C-82.5037364 65.05731044 -82.49786423 62.58887587 -82.48583984 60.11914062 C-82.49707886 59.39789505 -82.50831787 58.67664948 -82.51989746 57.93354797 C-82.4523216 52.4474505 -81.01354132 49.42369071 -78 45 C-75.34765625 42.7265625 -75.34765625 42.7265625 -72.0625 40.625 C-71.11769775 40.01724731 -71.11769775 40.01724731 -70.15380859 39.3972168 C-62.02619987 34.25097545 -53.6751314 29.44979762 -45.35473633 24.62304688 C-39.16181634 21.03013254 -32.99053588 17.4121313 -26.8828125 13.67578125 C-25.76374512 12.99346436 -24.64467773 12.31114746 -23.49169922 11.6081543 C-21.39249681 10.32393821 -19.29747053 9.03286023 -17.20751953 7.73364258 C-11.57495735 4.29650929 -6.35094846 1.81642353 0 0 Z " fill="#010101" transform="translate(512,424)"/>
<path d="M0 0 C0.66 0 1.32 0 2 0 C2.33 1.65 2.66 3.3 3 5 C2.34 4.67 1.68 4.34 1 4 C0.375 1.9375 0.375 1.9375 0 0 Z " fill="#1D1E1D" transform="translate(170,499)"/>
<path d="M0 0 C1.32 0.33 2.64 0.66 4 1 C3.01 1.495 3.01 1.495 2 2 C1.34 1.34 0.68 0.68 0 0 Z " fill="#141614" transform="translate(400,352)"/>
<path d="M0 0 C0.99 0.33 1.98 0.66 3 1 C2.34 1.66 1.68 2.32 1 3 C0.67 2.01 0.34 1.02 0 0 Z " fill="#141514" transform="translate(593,280)"/>
<path d="M0 0 C0 3 0 3 0 3 Z " fill="#1D1E1D" transform="translate(228,733)"/>
<path d="M0 0 C1 4 1 4 1 4 Z " fill="#171716" transform="translate(313,532)"/>
<path d="M0 0 C3 1 3 1 3 1 Z " fill="#151613" transform="translate(548,768)"/>
<path d="M0 0 C3 1 3 1 3 1 Z " fill="#151415" transform="translate(448,744)"/>
<path d="" fill="#1E1E1D" transform="translate(0,0)"/>
<path d="M0 0 C0.99 0.495 0.99 0.495 2 1 C1.01 1.495 1.01 1.495 0 2 C0 1.34 0 0.68 0 0 Z " fill="#151515" transform="translate(627,608)"/>
<path d="" fill="#161616" transform="translate(0,0)"/>
<path d="" fill="#151514" transform="translate(0,0)"/>
<path d="" fill="#161616" transform="translate(0,0)"/>
<path d="" fill="#161415" transform="translate(0,0)"/>
<path d="" fill="#161615" transform="translate(0,0)"/>
<path d="M0 0 C3 1 3 1 3 1 Z " fill="#151413" transform="translate(593,406)"/>
<path d="M0 0 C3 1 3 1 3 1 Z " fill="#141313" transform="translate(604,344)"/>
<path d="M0 0 C3 1 3 1 3 1 Z " fill="#191717" transform="translate(491,195)"/>
<path d="M0 0 C2 1 2 1 2 1 Z " fill="#1C1B1B" transform="translate(609,839)"/>
<path d="M0 0 C2 1 2 1 2 1 Z " fill="#1D1D1E" transform="translate(595,838)"/>
<path d="M0 0 C2 1 2 1 2 1 Z " fill="#1E1B1B" transform="translate(668,831)"/>
<path d="M0 0 C2 1 2 1 2 1 Z " fill="#171615" transform="translate(567,776)"/>
<path d="M0 0 C2 1 2 1 2 1 Z " fill="#181A17" transform="translate(349,760)"/>
<path d="M0 0 C2 1 2 1 2 1 Z " fill="#171817" transform="translate(437,754)"/>
<path d="M0 0 C2 1 2 1 2 1 Z " fill="#181614" transform="translate(456,744)"/>
<path d="" fill="#1F1D1D" transform="translate(0,0)"/>
<path d="" fill="#20211E" transform="translate(0,0)"/>
<path d="" fill="#202020" transform="translate(0,0)"/>
<path d="M0 0 C2 1 2 1 2 1 Z " fill="#151414" transform="translate(520,672)"/>
<path d="" fill="#1D1C1C" transform="translate(0,0)"/>
<path d="M0 0 C2 1 2 1 2 1 Z " fill="#161615" transform="translate(535,665)"/>
<path d="M0 0 C2 1 2 1 2 1 Z " fill="#181718" transform="translate(591,632)"/>
<path d="M0 0 C2 1 2 1 2 1 Z " fill="#151714" transform="translate(585,632)"/>
<path d="" fill="#1C1B1A" transform="translate(0,0)"/>
<path d="" fill="#1C1B19" transform="translate(0,0)"/>
<path d="" fill="#171615" transform="translate(0,0)"/>
<path d="" fill="#171513" transform="translate(0,0)"/>
<path d="" fill="#151513" transform="translate(0,0)"/>
<path d="M0 0 C2 1 2 1 2 1 Z " fill="#0F1010" transform="translate(291,560)"/>
<path d="" fill="#151513" transform="translate(0,0)"/>
<path d="M0 0 C2 1 2 1 2 1 Z " fill="#181717" transform="translate(267,544)"/>
<path d="" fill="#161515" transform="translate(0,0)"/>
<path d="" fill="#171717" transform="translate(0,0)"/>
<path d="" fill="#181916" transform="translate(0,0)"/>
<path d="" fill="#161617" transform="translate(0,0)"/>
<path d="" fill="#161716" transform="translate(0,0)"/>
<path d="M0 0 C2 1 2 1 2 1 Z " fill="#141414" transform="translate(487,434)"/>
<path d="" fill="#141512" transform="translate(0,0)"/>
<path d="" fill="#121311" transform="translate(0,0)"/>
<path d="M0 0 C2 1 2 1 2 1 Z " fill="#151413" transform="translate(578,397)"/>
<path d="M0 0 C2 1 2 1 2 1 Z " fill="#141313" transform="translate(667,384)"/>
<path d="M0 0 C2 1 2 1 2 1 Z " fill="#141414" transform="translate(555,382)"/>
<path d="" fill="#191818" transform="translate(0,0)"/>
<path d="" fill="#161616" transform="translate(0,0)"/>
<path d="M0 0 C2 1 2 1 2 1 Z " fill="#1A1818" transform="translate(300,319)"/>
<path d="M0 0 C2 1 2 1 2 1 Z " fill="#161516" transform="translate(547,312)"/>
<path d="M0 0 C2 1 2 1 2 1 Z " fill="#171615" transform="translate(676,311)"/>
<path d="M0 0 C2 1 2 1 2 1 Z " fill="#131513" transform="translate(560,304)"/>
<path d="M0 0 C2 1 2 1 2 1 Z " fill="#141714" transform="translate(481,304)"/>
<path d="" fill="#161514" transform="translate(0,0)"/>
<path d="M0 0 C2 1 2 1 2 1 Z " fill="#1F1F1F" transform="translate(759,280)"/>
<path d="M0 0 C2 1 2 1 2 1 Z " fill="#171514" transform="translate(600,280)"/>
<path d="M0 0 C2 1 2 1 2 1 Z " fill="#1B1B1A" transform="translate(729,266)"/>
<path d="M0 0 C2 1 2 1 2 1 Z " fill="#1F201E" transform="translate(288,264)"/>
<path d="" fill="#141312" transform="translate(0,0)"/>
<path d="M0 0 C2 1 2 1 2 1 Z " fill="#191918" transform="translate(539,198)"/>
<path d="M0 0 C2 1 2 1 2 1 Z " fill="#171716" transform="translate(475,198)"/>
<path d="M0 0 C2 1 2 1 2 1 Z " fill="#1A1918" transform="translate(521,195)"/>
<path d="" fill="#202120" transform="translate(0,0)"/>
<path d="M0 0 C2 1 2 1 2 1 Z " fill="#1A1A17" transform="translate(590,160)"/>
<path d="" fill="#21201E" transform="translate(0,0)"/>
<path d="" fill="#20201D" transform="translate(0,0)"/>
<path d="" fill="#1F1F20" transform="translate(0,0)"/>
<path d="" fill="#1C1D1A" transform="translate(0,0)"/>
<path d="" fill="#20201D" transform="translate(0,0)"/>
<path d="" fill="#1E1D1D" transform="translate(0,0)"/>
<path d="" fill="#211D1E" transform="translate(0,0)"/>
<path d="" fill="#1A1918" transform="translate(0,0)"/>
<path d="" fill="#1F1D1F" transform="translate(0,0)"/>
<path d="" fill="#1E1C1C" transform="translate(0,0)"/>
<path d="" fill="#1D1C1B" transform="translate(0,0)"/>
<path d="" fill="#1D1F1B" transform="translate(0,0)"/>
<path d="" fill="#1E1E1B" transform="translate(0,0)"/>
<path d="" fill="#201F1C" transform="translate(0,0)"/>
<path d="" fill="#1C1C1A" transform="translate(0,0)"/>
<path d="" fill="#1F1E1D" transform="translate(0,0)"/>
<path d="" fill="#21201E" transform="translate(0,0)"/>
<path d="" fill="#1D1F1C" transform="translate(0,0)"/>
<path d="" fill="#252323" transform="translate(0,0)"/>
<path d="" fill="#1D1B18" transform="translate(0,0)"/>
<path d="" fill="#1A1A17" transform="translate(0,0)"/>
<path d="" fill="#1E201E" transform="translate(0,0)"/>
<path d="" fill="#1A1A1C" transform="translate(0,0)"/>
<path d="" fill="#1F1D1E" transform="translate(0,0)"/>
<path d="" fill="#1F201C" transform="translate(0,0)"/>
<path d="" fill="#1E1D1D" transform="translate(0,0)"/>
<path d="" fill="#1E1F1E" transform="translate(0,0)"/>
<path d="" fill="#181818" transform="translate(0,0)"/>
<path d="" fill="#1A1518" transform="translate(0,0)"/>
<path d="" fill="#191917" transform="translate(0,0)"/>
<path d="" fill="#161817" transform="translate(0,0)"/>
<path d="" fill="#191819" transform="translate(0,0)"/>
<path d="" fill="#12100C" transform="translate(0,0)"/>
<path d="" fill="#181917" transform="translate(0,0)"/>
<path d="" fill="#151313" transform="translate(0,0)"/>
<path d="" fill="#151617" transform="translate(0,0)"/>
<path d="" fill="#191917" transform="translate(0,0)"/>
<path d="" fill="#222222" transform="translate(0,0)"/>
<path d="" fill="#181816" transform="translate(0,0)"/>
<path d="" fill="#181917" transform="translate(0,0)"/>
<path d="" fill="#191B17" transform="translate(0,0)"/>
<path d="" fill="#191919" transform="translate(0,0)"/>
<path d="" fill="#1B1D1C" transform="translate(0,0)"/>
<path d="" fill="#191716" transform="translate(0,0)"/>
<path d="" fill="#161415" transform="translate(0,0)"/>
<path d="" fill="#191617" transform="translate(0,0)"/>
<path d="" fill="#1A1A18" transform="translate(0,0)"/>
<path d="" fill="#151413" transform="translate(0,0)"/>
<path d="" fill="#151714" transform="translate(0,0)"/>
<path d="" fill="#1A1816" transform="translate(0,0)"/>
<path d="" fill="#161718" transform="translate(0,0)"/>
<path d="" fill="#181816" transform="translate(0,0)"/>
<path d="" fill="#161414" transform="translate(0,0)"/>
<path d="" fill="#161414" transform="translate(0,0)"/>
<path d="" fill="#191915" transform="translate(0,0)"/>
<path d="" fill="#141811" transform="translate(0,0)"/>
<path d="" fill="#151615" transform="translate(0,0)"/>
<path d="" fill="#151615" transform="translate(0,0)"/>
<path d="" fill="#161614" transform="translate(0,0)"/>
<path d="" fill="#141414" transform="translate(0,0)"/>
<path d="" fill="#181716" transform="translate(0,0)"/>
<path d="" fill="#242424" transform="translate(0,0)"/>
<path d="" fill="#1D1A19" transform="translate(0,0)"/>
<path d="" fill="#161718" transform="translate(0,0)"/>
<path d="" fill="#161715" transform="translate(0,0)"/>
<path d="" fill="#201D1E" transform="translate(0,0)"/>
<path d="" fill="#121614" transform="translate(0,0)"/>
<path d="" fill="#1F1E1E" transform="translate(0,0)"/>
<path d="" fill="#1D1B1D" transform="translate(0,0)"/>
<path d="" fill="#161516" transform="translate(0,0)"/>
<path d="" fill="#151513" transform="translate(0,0)"/>
<path d="" fill="#151113" transform="translate(0,0)"/>
<path d="" fill="#131415" transform="translate(0,0)"/>
<path d="" fill="#1F1D1D" transform="translate(0,0)"/>
<path d="" fill="#161719" transform="translate(0,0)"/>
<path d="" fill="#1E1D1B" transform="translate(0,0)"/>
<path d="" fill="#20201F" transform="translate(0,0)"/>
<path d="" fill="#151515" transform="translate(0,0)"/>
<path d="" fill="#161717" transform="translate(0,0)"/>
<path d="" fill="#151816" transform="translate(0,0)"/>
<path d="" fill="#161615" transform="translate(0,0)"/>
<path d="" fill="#1F2220" transform="translate(0,0)"/>
<path d="" fill="#1E1E1D" transform="translate(0,0)"/>
<path d="" fill="#161815" transform="translate(0,0)"/>
<path d="" fill="#171516" transform="translate(0,0)"/>
<path d="" fill="#181616" transform="translate(0,0)"/>
<path d="" fill="#1F1E1F" transform="translate(0,0)"/>
<path d="" fill="#1C1B1D" transform="translate(0,0)"/>
<path d="" fill="#191919" transform="translate(0,0)"/>
<path d="" fill="#161815" transform="translate(0,0)"/>
<path d="" fill="#1E1F1D" transform="translate(0,0)"/>
<path d="" fill="#201E1E" transform="translate(0,0)"/>
<path d="" fill="#131212" transform="translate(0,0)"/>
<path d="" fill="#191818" transform="translate(0,0)"/>
<path d="" fill="#181A18" transform="translate(0,0)"/>
<path d="" fill="#171715" transform="translate(0,0)"/>
<path d="" fill="#151512" transform="translate(0,0)"/>
<path d="" fill="#0B0D0E" transform="translate(0,0)"/>
<path d="" fill="#191715" transform="translate(0,0)"/>
<path d="" fill="#161717" transform="translate(0,0)"/>
<path d="" fill="#181816" transform="translate(0,0)"/>
<path d="" fill="#191918" transform="translate(0,0)"/>
<path d="" fill="#181717" transform="translate(0,0)"/>
<path d="" fill="#1D1C1C" transform="translate(0,0)"/>
<path d="" fill="#1B1A19" transform="translate(0,0)"/>
<path d="" fill="#171816" transform="translate(0,0)"/>
<path d="" fill="#161617" transform="translate(0,0)"/>
<path d="" fill="#151615" transform="translate(0,0)"/>
<path d="" fill="#191717" transform="translate(0,0)"/>
<path d="" fill="#141513" transform="translate(0,0)"/>
<path d="" fill="#171916" transform="translate(0,0)"/>
<path d="" fill="#171817" transform="translate(0,0)"/>
<path d="" fill="#191718" transform="translate(0,0)"/>
<path d="" fill="#171715" transform="translate(0,0)"/>
<path d="" fill="#141513" transform="translate(0,0)"/>
<path d="" fill="#1E1D1F" transform="translate(0,0)"/>
<path d="" fill="#141514" transform="translate(0,0)"/>
<path d="" fill="#151815" transform="translate(0,0)"/>
<path d="" fill="#171515" transform="translate(0,0)"/>
<path d="" fill="#151414" transform="translate(0,0)"/>
<path d="" fill="#151518" transform="translate(0,0)"/>
<path d="" fill="#20211F" transform="translate(0,0)"/>
<path d="" fill="#161817" transform="translate(0,0)"/>
<path d="" fill="#161714" transform="translate(0,0)"/>
<path d="" fill="#181717" transform="translate(0,0)"/>
<path d="" fill="#191819" transform="translate(0,0)"/>
<path d="" fill="#131210" transform="translate(0,0)"/>
<path d="" fill="#171515" transform="translate(0,0)"/>
<path d="" fill="#161418" transform="translate(0,0)"/>
<path d="" fill="#191716" transform="translate(0,0)"/>
<path d="" fill="#161617" transform="translate(0,0)"/>
<path d="" fill="#141312" transform="translate(0,0)"/>
<path d="" fill="#131213" transform="translate(0,0)"/>
<path d="" fill="#131314" transform="translate(0,0)"/>
<path d="" fill="#191915" transform="translate(0,0)"/>
<path d="" fill="#171717" transform="translate(0,0)"/>
<path d="" fill="#171818" transform="translate(0,0)"/>
<path d="" fill="#151314" transform="translate(0,0)"/>
<path d="" fill="#141511" transform="translate(0,0)"/>
<path d="" fill="#171516" transform="translate(0,0)"/>
<path d="" fill="#1A1819" transform="translate(0,0)"/>
<path d="" fill="#181818" transform="translate(0,0)"/>
<path d="" fill="#161414" transform="translate(0,0)"/>
<path d="" fill="#131312" transform="translate(0,0)"/>
<path d="" fill="#141412" transform="translate(0,0)"/>
<path d="" fill="#181919" transform="translate(0,0)"/>
<path d="" fill="#191616" transform="translate(0,0)"/>
<path d="" fill="#161717" transform="translate(0,0)"/>
<path d="" fill="#161616" transform="translate(0,0)"/>
<path d="" fill="#161513" transform="translate(0,0)"/>
<path d="" fill="#1C1A18" transform="translate(0,0)"/>
<path d="" fill="#171515" transform="translate(0,0)"/>
<path d="" fill="#191717" transform="translate(0,0)"/>
<path d="" fill="#171717" transform="translate(0,0)"/>
<path d="" fill="#191917" transform="translate(0,0)"/>
<path d="" fill="#1B1D1B" transform="translate(0,0)"/>
<path d="" fill="#1B1A19" transform="translate(0,0)"/>
<path d="" fill="#191718" transform="translate(0,0)"/>
<path d="" fill="#171514" transform="translate(0,0)"/>
<path d="" fill="#181818" transform="translate(0,0)"/>
<path d="" fill="#181717" transform="translate(0,0)"/>
<path d="" fill="#191818" transform="translate(0,0)"/>
<path d="" fill="#181916" transform="translate(0,0)"/>
<path d="" fill="#151513" transform="translate(0,0)"/>
<path d="" fill="#161515" transform="translate(0,0)"/>
<path d="" fill="#171714" transform="translate(0,0)"/>
<path d="" fill="#1F1C1D" transform="translate(0,0)"/>
<path d="" fill="#151613" transform="translate(0,0)"/>
<path d="" fill="#171817" transform="translate(0,0)"/>
<path d="" fill="#141615" transform="translate(0,0)"/>
<path d="" fill="#151617" transform="translate(0,0)"/>
<path d="" fill="#191A18" transform="translate(0,0)"/>
<path d="" fill="#1B1A18" transform="translate(0,0)"/>
<path d="" fill="#171615" transform="translate(0,0)"/>
<path d="" fill="#1F201F" transform="translate(0,0)"/>
<path d="" fill="#191919" transform="translate(0,0)"/>
<path d="" fill="#1C1C1B" transform="translate(0,0)"/>
<path d="" fill="#161415" transform="translate(0,0)"/>
<path d="" fill="#191416" transform="translate(0,0)"/>
<path d="" fill="#1E1F1E" transform="translate(0,0)"/>
<path d="" fill="#171615" transform="translate(0,0)"/>
<path d="" fill="#1F1D1E" transform="translate(0,0)"/>
<path d="" fill="#141614" transform="translate(0,0)"/>
<path d="" fill="#151715" transform="translate(0,0)"/>
<path d="" fill="#161716" transform="translate(0,0)"/>
<path d="" fill="#211F21" transform="translate(0,0)"/>
<path d="" fill="#202121" transform="translate(0,0)"/>
<path d="" fill="#181A17" transform="translate(0,0)"/>
<path d="" fill="#131111" transform="translate(0,0)"/>
<path d="" fill="#171715" transform="translate(0,0)"/>
<path d="" fill="#161615" transform="translate(0,0)"/>
<path d="" fill="#1B1918" transform="translate(0,0)"/>
<path d="" fill="#181717" transform="translate(0,0)"/>
<path d="" fill="#161715" transform="translate(0,0)"/>
<path d="" fill="#171915" transform="translate(0,0)"/>
<path d="" fill="#131212" transform="translate(0,0)"/>
<path d="" fill="#161314" transform="translate(0,0)"/>
<path d="" fill="#1C1919" transform="translate(0,0)"/>
<path d="" fill="#161815" transform="translate(0,0)"/>
<path d="" fill="#1A1717" transform="translate(0,0)"/>
<path d="" fill="#151514" transform="translate(0,0)"/>
<path d="" fill="#181918" transform="translate(0,0)"/>
<path d="" fill="#181514" transform="translate(0,0)"/>
<path d="" fill="#1F1D1C" transform="translate(0,0)"/>
<path d="" fill="#161615" transform="translate(0,0)"/>
<path d="" fill="#181717" transform="translate(0,0)"/>
<path d="" fill="#151717" transform="translate(0,0)"/>
<path d="" fill="#201F20" transform="translate(0,0)"/>
<path d="" fill="#1D1F1B" transform="translate(0,0)"/>
<path d="" fill="#141513" transform="translate(0,0)"/>
<path d="" fill="#141614" transform="translate(0,0)"/>
<path d="" fill="#141514" transform="translate(0,0)"/>
<path d="" fill="#141411" transform="translate(0,0)"/>
<path d="" fill="#171613" transform="translate(0,0)"/>
<path d="" fill="#141517" transform="translate(0,0)"/>
<path d="" fill="#1E1E1F" transform="translate(0,0)"/>
<path d="" fill="#201F1F" transform="translate(0,0)"/>
<path d="" fill="#131012" transform="translate(0,0)"/>
<path d="" fill="#151413" transform="translate(0,0)"/>
<path d="" fill="#141615" transform="translate(0,0)"/>
<path d="" fill="#161617" transform="translate(0,0)"/>
<path d="" fill="#191618" transform="translate(0,0)"/>
<path d="" fill="#191818" transform="translate(0,0)"/>
<path d="" fill="#1A1919" transform="translate(0,0)"/>
<path d="" fill="#151616" transform="translate(0,0)"/>
<path d="" fill="#151513" transform="translate(0,0)"/>
<path d="" fill="#171517" transform="translate(0,0)"/>
<path d="" fill="#141614" transform="translate(0,0)"/>
<path d="" fill="#161815" transform="translate(0,0)"/>
<path d="" fill="#191818" transform="translate(0,0)"/>
<path d="" fill="#161615" transform="translate(0,0)"/>
<path d="" fill="#151614" transform="translate(0,0)"/>
<path d="" fill="#141313" transform="translate(0,0)"/>
<path d="" fill="#121515" transform="translate(0,0)"/>
<path d="" fill="#151616" transform="translate(0,0)"/>
<path d="" fill="#191A18" transform="translate(0,0)"/>
<path d="" fill="#191718" transform="translate(0,0)"/>
<path d="" fill="#201F1D" transform="translate(0,0)"/>
<path d="" fill="#161416" transform="translate(0,0)"/>
<path d="" fill="#171616" transform="translate(0,0)"/>
<path d="" fill="#151514" transform="translate(0,0)"/>
<path d="" fill="#171814" transform="translate(0,0)"/>
<path d="" fill="#161615" transform="translate(0,0)"/>
<path d="" fill="#161715" transform="translate(0,0)"/>
<path d="" fill="#151313" transform="translate(0,0)"/>
<path d="" fill="#161314" transform="translate(0,0)"/>
<path d="" fill="#121213" transform="translate(0,0)"/>
<path d="" fill="#1D1B1C" transform="translate(0,0)"/>
<path d="" fill="#1E1E1E" transform="translate(0,0)"/>
<path d="" fill="#161716" transform="translate(0,0)"/>
<path d="" fill="#171516" transform="translate(0,0)"/>
<path d="" fill="#1F2221" transform="translate(0,0)"/>
<path d="" fill="#161716" transform="translate(0,0)"/>
<path d="" fill="#1F201F" transform="translate(0,0)"/>
<path d="" fill="#121412" transform="translate(0,0)"/>
<path d="" fill="#20211F" transform="translate(0,0)"/>
<path d="" fill="#191A19" transform="translate(0,0)"/>
<path d="" fill="#191615" transform="translate(0,0)"/>
<path d="" fill="#151613" transform="translate(0,0)"/>
<path d="" fill="#151414" transform="translate(0,0)"/>
<path d="" fill="#191816" transform="translate(0,0)"/>
<path d="" fill="#151414" transform="translate(0,0)"/>
<path d="" fill="#171917" transform="translate(0,0)"/>
<path d="" fill="#141314" transform="translate(0,0)"/>
<path d="" fill="#171816" transform="translate(0,0)"/>
<path d="" fill="#131212" transform="translate(0,0)"/>
<path d="" fill="#1C1C1A" transform="translate(0,0)"/>
<path d="" fill="#131313" transform="translate(0,0)"/>
<path d="" fill="#161414" transform="translate(0,0)"/>
<path d="" fill="#131312" transform="translate(0,0)"/>
<path d="" fill="#141514" transform="translate(0,0)"/>
<path d="" fill="#151515" transform="translate(0,0)"/>
<path d="" fill="#171414" transform="translate(0,0)"/>
<path d="" fill="#121111" transform="translate(0,0)"/>
<path d="" fill="#131312" transform="translate(0,0)"/>
<path d="" fill="#151410" transform="translate(0,0)"/>
<path d="" fill="#191818" transform="translate(0,0)"/>
<path d="" fill="#121313" transform="translate(0,0)"/>
<path d="" fill="#171816" transform="translate(0,0)"/>
<path d="" fill="#191718" transform="translate(0,0)"/>
<path d="" fill="#1F2121" transform="translate(0,0)"/>
<path d="" fill="#1F221F" transform="translate(0,0)"/>
<path d="" fill="#161617" transform="translate(0,0)"/>
<path d="" fill="#1A1918" transform="translate(0,0)"/>
<path d="" fill="#181818" transform="translate(0,0)"/>
<path d="" fill="#1A1816" transform="translate(0,0)"/>
<path d="" fill="#161412" transform="translate(0,0)"/>
<path d="" fill="#151615" transform="translate(0,0)"/>
<path d="" fill="#141414" transform="translate(0,0)"/>
<path d="" fill="#151513" transform="translate(0,0)"/>
<path d="" fill="#171717" transform="translate(0,0)"/>
<path d="" fill="#181715" transform="translate(0,0)"/>
<path d="" fill="#131514" transform="translate(0,0)"/>
<path d="" fill="#191817" transform="translate(0,0)"/>
<path d="" fill="#181414" transform="translate(0,0)"/>
<path d="" fill="#161614" transform="translate(0,0)"/>
<path d="" fill="#171717" transform="translate(0,0)"/>
<path d="" fill="#151516" transform="translate(0,0)"/>
<path d="" fill="#20211E" transform="translate(0,0)"/>
<path d="" fill="#161515" transform="translate(0,0)"/>
<path d="" fill="#211F1E" transform="translate(0,0)"/>
<path d="" fill="#151514" transform="translate(0,0)"/>
<path d="" fill="#161414" transform="translate(0,0)"/>
<path d="" fill="#171515" transform="translate(0,0)"/>
<path d="" fill="#161616" transform="translate(0,0)"/>
<path d="" fill="#21201D" transform="translate(0,0)"/>
<path d="" fill="#221F20" transform="translate(0,0)"/>
<path d="" fill="#1F1E1E" transform="translate(0,0)"/>
<path d="" fill="#1E201E" transform="translate(0,0)"/>
<path d="" fill="#171717" transform="translate(0,0)"/>
<path d="" fill="#171716" transform="translate(0,0)"/>
<path d="" fill="#181717" transform="translate(0,0)"/>
<path d="" fill="#131314" transform="translate(0,0)"/>
<path d="" fill="#181517" transform="translate(0,0)"/>
<path d="" fill="#1E201E" transform="translate(0,0)"/>
<path d="" fill="#21211F" transform="translate(0,0)"/>
<path d="" fill="#21211D" transform="translate(0,0)"/>
<path d="" fill="#1C1D1B" transform="translate(0,0)"/>
<path d="" fill="#161614" transform="translate(0,0)"/>
<path d="" fill="#141513" transform="translate(0,0)"/>
<path d="" fill="#1F2120" transform="translate(0,0)"/>
<path d="" fill="#141512" transform="translate(0,0)"/>
<path d="" fill="#1A1916" transform="translate(0,0)"/>
<path d="" fill="#1F2220" transform="translate(0,0)"/>
<path d="" fill="#1A1B18" transform="translate(0,0)"/>
<path d="" fill="#1E1F1F" transform="translate(0,0)"/>
<path d="" fill="#20211F" transform="translate(0,0)"/>
<path d="" fill="#232221" transform="translate(0,0)"/>
<path d="" fill="#141211" transform="translate(0,0)"/>
<path d="" fill="#1E201C" transform="translate(0,0)"/>
<path d="" fill="#1A1A18" transform="translate(0,0)"/>
<path d="" fill="#1A1517" transform="translate(0,0)"/>
<path d="" fill="#141413" transform="translate(0,0)"/>
<path d="" fill="#151416" transform="translate(0,0)"/>
<path d="" fill="#151612" transform="translate(0,0)"/>
<path d="" fill="#191818" transform="translate(0,0)"/>
<path d="" fill="#191919" transform="translate(0,0)"/>
<path d="" fill="#1B1D1B" transform="translate(0,0)"/>
<path d="" fill="#1B1A18" transform="translate(0,0)"/>
<path d="" fill="#151411" transform="translate(0,0)"/>
<path d="" fill="#181716" transform="translate(0,0)"/>
<path d="" fill="#181717" transform="translate(0,0)"/>
<path d="" fill="#1C1916" transform="translate(0,0)"/>
<path d="" fill="#141213" transform="translate(0,0)"/>
<path d="" fill="#171816" transform="translate(0,0)"/>
<path d="" fill="#1D1C19" transform="translate(0,0)"/>
<path d="" fill="#171615" transform="translate(0,0)"/>
<path d="" fill="#181917" transform="translate(0,0)"/>
<path d="" fill="#1B1E1E" transform="translate(0,0)"/>
<path d="" fill="#1C1C1A" transform="translate(0,0)"/>
<path d="" fill="#1C1B19" transform="translate(0,0)"/>
<path d="" fill="#1F1E1F" transform="translate(0,0)"/>
<path d="" fill="#1E1D1B" transform="translate(0,0)"/>
<path d="" fill="#1F1D1D" transform="translate(0,0)"/>
<path d="" fill="#1D1D1C" transform="translate(0,0)"/>
<path d="" fill="#1F2121" transform="translate(0,0)"/>
<path d="" fill="#232121" transform="translate(0,0)"/>
<path d="" fill="#211F1F" transform="translate(0,0)"/>
<path d="" fill="#1D1C1B" transform="translate(0,0)"/>
<path d="" fill="#1F1F1E" transform="translate(0,0)"/>
<path d="" fill="#1E1E1C" transform="translate(0,0)"/>
<path d="" fill="#20221F" transform="translate(0,0)"/>
<path d="" fill="#1F211E" transform="translate(0,0)"/>
<path d="" fill="#202120" transform="translate(0,0)"/>
<path d="" fill="#1D1D1C" transform="translate(0,0)"/>
<path d="" fill="#20201E" transform="translate(0,0)"/>
<path d="" fill="#20201E" transform="translate(0,0)"/>
<path d="" fill="#1F1D1D" transform="translate(0,0)"/>
<path d="" fill="#222320" transform="translate(0,0)"/>
<path d="" fill="#262424" transform="translate(0,0)"/>
<path d="" fill="#22221E" transform="translate(0,0)"/>
<path d="" fill="#1D1B1B" transform="translate(0,0)"/>
<path d="" fill="#1F201D" transform="translate(0,0)"/>
<path d="" fill="#1D1C1B" transform="translate(0,0)"/>
<path d="" fill="#1B1B19" transform="translate(0,0)"/>
<path d="" fill="#1D1F1E" transform="translate(0,0)"/>
<path d="" fill="#1D1D1C" transform="translate(0,0)"/>
<path d="" fill="#201F1E" transform="translate(0,0)"/>
<path d="" fill="#20211E" transform="translate(0,0)"/>
</svg>
